<?xml version="1.0" encoding="utf-8"?>
<!-- Generator: Adobe Illustrator 19.0.0, SVG Export Plug-In . SVG Version: 6.00 Build 0)  -->
<svg version="1.1" id="Layer_2" xmlns="http://www.w3.org/2000/svg" xmlns:xlink="http://www.w3.org/1999/xlink" x="0px" y="0px"
	 width="125.9px" height="185px" viewBox="0 0 125.9 185" style="enable-background:new 0 0 125.9 185;" xml:space="preserve">
<style type="text/css">
	.st0{fill-rule:evenodd;clip-rule:evenodd;fill:#E6E7E8;}
	.st1{fill:#CE5D5D;}
	.st2{fill:#DD8D8E;}
	.st3{fill:#010101;}
	.st4{fill:#FFFFFF;}
	.st5{fill:#FFFFFF;stroke:#010101;stroke-width:3;stroke-miterlimit:10;}
	.st6{fill:none;stroke:#010101;stroke-width:3;stroke-linecap:round;stroke-linejoin:round;stroke-miterlimit:10;}
	.st7{fill-rule:evenodd;clip-rule:evenodd;fill:#EBA9A9;}
	.st8{fill:#030404;}
	.st9{fill:#91D8F7;stroke:#000000;stroke-width:3;stroke-linecap:round;stroke-miterlimit:10;}
</style>
<g id="XMLID_9_">
	<path id="XMLID_13_" class="st0" d="M61.7,179.4c30.4,0,55,1.2,55,2.8c0,1.5-24.6,2.8-55,2.8s-55-1.2-55-2.8
		C6.7,180.7,31.3,179.4,61.7,179.4z"/>
	<g id="XMLID_1101_">
		<path id="XMLID_1106_" class="st1" d="M99.7,175.8H26.2c-1.6,0-2.8-1.3-2.8-2.8v-65.7c0-1.6,1.3-2.8,2.8-2.8h73.5
			c1.6,0,2.8,1.3,2.8,2.8V173C102.5,174.6,101.3,175.8,99.7,175.8z"/>
		<path id="XMLID_1061_" class="st2" d="M24,95.9h73.9l4.6,8.2c-0.1,3.5-3,6.3-6.5,6.3c-3.6,0-6.5-2.9-6.5-6.5c0-1.1-0.9-2-2-2
			s-2,0.9-2,2c0,3.6-2.9,6.5-6.5,6.5s-6.5-2.9-6.5-6.5c0-1.1-0.9-2-2-2s-2,0.9-2,2c0,3.6-2.9,6.5-6.5,6.5s-6.5-2.9-6.5-6.5
			c0-1.1-0.9-2-2-2s-2,0.9-2,2c0,3.6-2.9,6.5-6.5,6.5s-6.5-2.9-6.5-6.5c0-1.1-0.9-2-2-2s-2,0.9-2,2c0,3.6-2.9,6.5-6.5,6.5
			c-3.5,0-6.4-2.8-6.5-6.2L24,95.9z"/>
		<path id="XMLID_1066_" class="st3" d="M94.5,122.1h-36c-1.1,0-2,0.9-2,2v42c0,1.1,0.9,2,2,2h36c1.1,0,2-0.9,2-2v-42
			C96.5,123,95.7,122.1,94.5,122.1z M92.5,164.1h-32v-38h32V164.1z"/>
		<rect id="XMLID_1159_" x="60.5" y="126.1" class="st4" width="32" height="38"/>
		<path id="XMLID_1257_" class="st3" d="M24.5,113.8c1.1,0.4,2.3,0.6,3.5,0.6c3.5,0,6.6-1.7,8.5-4.3c1.9,2.6,5,4.3,8.5,4.3
			s6.6-1.7,8.5-4.3c1.9,2.6,5,4.3,8.5,4.3s6.6-1.7,8.5-4.3c1.9,2.6,5,4.3,8.5,4.3s6.6-1.7,8.5-4.3c1.9,2.6,5,4.3,8.5,4.3
			c1.6,0,3.1-0.4,4.5-1v61.6h4v-64.4c0-0.1,0-0.3,0-0.4c0,0,0,0,0,0c1.3-1.7,2-3.9,2-6.2c0-0.1,0-0.3,0-0.4l0,0l-5-10
			c-0.2-0.9-1-1.6-2-1.6h-75c-0.9,0-1.7,0.6-1.9,1.4l-5,10l0,0c-0.1,0.2-0.1,0.4-0.1,0.6c0,2.9,1.2,5.5,3,7.3v63.9h4V113.8z
			 M26,95.9h71.9l4.6,8.2c-0.1,3.5-3,6.3-6.5,6.3c-3.6,0-6.5-2.9-6.5-6.5c0-1.1-0.9-2-2-2s-2,0.9-2,2c0,3.6-2.9,6.5-6.5,6.5
			s-6.5-2.9-6.5-6.5c0-1.1-0.9-2-2-2s-2,0.9-2,2c0,3.6-2.9,6.5-6.5,6.5s-6.5-2.9-6.5-6.5c0-1.1-0.9-2-2-2s-2,0.9-2,2
			c0,3.6-2.9,6.5-6.5,6.5s-6.5-2.9-6.5-6.5c0-1.1-0.9-2-2-2s-2,0.9-2,2c0,3.6-2.9,6.5-6.5,6.5c-3.5,0-6.4-2.8-6.5-6.2L26,95.9z"/>
		<path id="XMLID_147_" class="st5" d="M103.7,181.5H20.4c-1.6,0-2.8-1.3-2.8-2.8v0c0-1.6,1.3-2.8,2.8-2.8h83.3
			c1.6,0,2.8,1.3,2.8,2.8v0C106.5,180.2,105.3,181.5,103.7,181.5z"/>
		<rect id="XMLID_1149_" x="32.5" y="126.1" class="st4" width="16" height="38"/>
		<path id="XMLID_1058_" class="st3" d="M50.5,122.1h-20c-1.1,0-2,0.9-2,2v42c0,1.1,0.9,2,2,2h20c1.1,0,2-0.9,2-2v-42
			C52.5,123,51.7,122.1,50.5,122.1z M48.5,164.1h-16v-38h16V164.1z"/>
		<circle id="XMLID_1059_" class="st3" cx="43.8" cy="147.1" r="2"/>
		<line id="XMLID_1162_" class="st6" x1="77.5" y1="138.6" x2="81.2" y2="135.4"/>
		<line id="XMLID_1161_" class="st6" x1="78.2" y1="144.1" x2="86.3" y2="137"/>
	</g>
	<g id="XMLID_73_">
		<path id="XMLID_71_" class="st7" d="M29.1,74.3c-0.4,0-0.7-0.1-0.7-0.1l-4.1-1c-0.5-0.1-1.6-0.4-2.7-1.6C21,71,20.5,70.1,20,69.2
			c-0.2-0.3-0.4-0.7-0.6-1c-0.1,0.3-0.3,0.7-0.4,1c-0.1,0.3-0.3,1.1-1.1,1.7c-0.4,0.3-0.9,0.4-1.5,0.4l0,0c-0.2,0-0.4,0-0.4,0
			l-0.2,0l-1.8-0.5c-0.1,0-4.7-0.9-7.6-6c-3-5.2-4.4-13.9-4.5-14.3c0-0.4-0.1-1.6,0.8-2.2c0.4-0.3,0.8-0.4,1.4-0.4
			c0.4,0,0.7,0.1,0.8,0.1l4.5,1.1l0.1,0.1c0.2,0.1,0.8,0.4,1.2,0.9c0.4,0.5,0.6,1.2,0.6,1.4c0,0,0.3,1.9,0.7,3.6
			c0.3,1,0.5,1.7,0.7,2.2c0.2-0.6,0.4-1.4,0.5-2.1l0-0.1c0.1-0.5,0.2-1.1,0.1-1.3c0,0,0,0,0,0c0,0-0.2-0.1-0.3-0.2l-1-0.4l0-1.2
			c0.1-1.2,1.4-1.8,2.1-1.9c0.3-0.1,0.6-0.1,0.9-0.1c1.1,0,2.3,0.3,3.7,0.7c1.4,0.4,1.8,0.6,2.4,0.9c2.2,1.1,1.6,3.2,1,5.1
			c-0.2,0.6-0.4,1.2-0.5,1.9c0,0.2-0.1,0.4-0.2,0.6c0,0,0,0,0,0c0.4-0.3,0.9-0.8,1.5-1.4c1.3-1.3,2.4-2.9,2.4-3l0.1-0.1
			c0.2-0.2,0.6-0.7,1.3-0.9c0.2-0.1,0.4-0.1,0.7-0.1c0.3,0,0.6,0.1,0.8,0.1l4.4,1.1c1.2,0.2,2.6,0.8,2.7,2.2
			c0.1,1.1-0.5,2.5-4.1,5.4c-0.5,0.4-1,0.8-1.4,1.1c-0.6,0.5-1.3,1-1.6,1.3c0.1,0.3,0.5,0.8,0.8,1.4c1.3,2,2.1,3.5,2.4,4.7
			c0.4,1.2,0,2-0.3,2.5C30.9,73.9,30.1,74.3,29.1,74.3z"/>
		<g id="XMLID_65_">
			<path id="XMLID_66_" d="M4.2,49.2c0.2,0,0.4,0,0.4,0L9,50.3c0,0,0.4,0.2,0.6,0.5c0.2,0.2,0.3,0.6,0.3,0.6s0.3,2,0.8,3.8
				c1,3.3,1.6,4.3,2.2,4.3c0.1,0,0.1,0,0.2,0c1-0.3,1.7-4.3,1.7-4.3s0.4-1.4,0.1-2.2c-0.2-0.6-0.9-0.9-1.2-1
				c-0.2-0.1,0.3-0.6,0.9-0.7c0.2,0,0.4-0.1,0.6-0.1c0.9,0,2,0.3,3.3,0.6c1.3,0.3,1.6,0.5,2.1,0.7c1.4,0.7,0.6,2-0.3,5.4
				c-0.3,1.1-0.8,2.5-0.2,3.2c0.1,0.1,0.2,0.1,0.3,0.1c0.5,0,1.5-0.5,3.7-2.8c1.4-1.4,2.6-3.2,2.6-3.2s0.2-0.3,0.5-0.4
				c0.1,0,0.1,0,0.2,0c0.2,0,0.4,0.1,0.4,0.1l4.6,1.1c0,0,1.4,0.2,1.5,0.9c0.1,0.7-1.1,2-3.6,4.1c-4.1,3.3-4.3,2.9-2.4,5.9
				c1.9,2.9,2.1,4.1,2.2,4.3c0.4,1.4-0.5,1.6-1.1,1.6c-0.2,0-0.4,0-0.4,0l-4.1-1c0,0-0.9,0-1.9-1.1c-1.2-1.4-2-4.4-3.2-4.4
				c0,0,0,0,0,0c-1.2,0.1-1.8,2.5-1.8,2.5s-0.1,0.5-0.4,0.7c-0.2,0.1-0.5,0.2-0.7,0.2c-0.1,0-0.2,0-0.2,0l-1.8-0.5
				c0,0-4.1-0.8-6.7-5.3c-2.9-5-4.3-13.8-4.3-13.8s-0.1-0.6,0.2-0.8C3.9,49.2,4.1,49.2,4.2,49.2 M4.2,46.2c-0.9,0-1.6,0.2-2.3,0.7
				c-1.1,0.8-1.6,2.1-1.4,3.5l0,0.1l0,0.1C0.6,51,2.1,60,5.2,65.4c3.1,5.3,7.7,6.6,8.6,6.8l1.8,0.4l0.2,0l0.2,0c0.1,0,0.3,0,0.6,0
				c0.9,0,1.7-0.2,2.3-0.7c0.3-0.2,0.5-0.4,0.7-0.6c0.3,0.4,0.6,0.8,0.9,1.2c1.4,1.5,2.8,2,3.6,2.1l3.9,0.9l0.1,0l0.1,0
				c0.1,0,0.5,0.1,1,0.1c1.5,0,2.7-0.6,3.5-1.6c0.4-0.6,1.1-1.9,0.5-3.8c-0.4-1.3-1.2-3-2.5-5.1l-0.1-0.1c-0.1-0.1-0.1-0.2-0.2-0.2
				c0.2-0.1,0.4-0.3,0.6-0.4c0.4-0.3,0.9-0.7,1.4-1.1c3-2.5,4.9-4.4,4.6-6.7c-0.2-1.8-1.7-3.2-3.9-3.5l-4.3-1.1
				C28.5,52.1,28,52,27.5,52c-0.4,0-0.7,0.1-1.1,0.2c-1.1,0.3-1.7,1.1-2,1.4l-0.1,0.1l0,0c0-1.4-0.5-2.8-2.3-3.7
				c-0.7-0.4-1.3-0.6-2.7-1c-1.4-0.4-2.8-0.7-4.1-0.7c-0.4,0-0.8,0-1.2,0.1c-0.6,0.1-1.3,0.4-1.8,0.8c-0.1-0.1-0.1-0.2-0.2-0.3
				c-0.6-0.8-1.4-1.2-1.7-1.3L10,47.4l-0.3-0.1l-4.4-1.1l0,0l0,0C5.2,46.3,4.7,46.2,4.2,46.2L4.2,46.2z"/>
		</g>
	</g>
	<g id="XMLID_1299_">
		<path id="XMLID_77_" class="st4" d="M54.9,41.4c-0.8,0-1.5-0.5-1.7-1.3l-2.6-11l-1.6,0.4l-0.2,0c-0.8,0-1.5-0.6-1.7-1.3L46,22.9
			c-0.2-0.9,0.4-1.8,1.3-2l1.5-0.4l-0.4-1.6c0-0.1-0.1-0.4-0.1-0.5c-0.1-0.8-0.5-3.7-0.2-5c0.3-1.1,0.7-2.9,2.4-4.3
			c1.6-1.2,3-1.9,5.2-2.4c0.9-0.2,2-0.3,3.3-0.3c1.6,0,3,0.2,3.1,0.2c0.9,0.1,1.6,0.9,1.5,1.8l-0.2,4.9c0,0.9-0.8,1.6-1.6,1.6h-0.2
			l-0.3-0.1c-0.4-0.1-1.5-0.4-2.2-0.4c-0.2,0-0.3,0-0.3,0c-0.7,0.2-1.2,0.5-1.4,0.7c-0.1,0.5,0.2,1.9,0.6,3.3l5.1-1.2l0.2,0
			c0.9,0,1.7,0.7,1.7,1.7l0,5.5c0,0.8-0.6,1.5-1.3,1.7l-3.2,0.8l2.6,11c0.1,0.4,0,0.9-0.2,1.3c-0.2,0.4-0.6,0.7-1.1,0.8l-6.6,1.6
			L54.9,41.4z"/>
		<path id="XMLID_67_" d="M59,7.8c1.6,0,2.9,0.2,2.9,0.2c0.1,0,0.2,0.1,0.2,0.2l-0.2,4.9c0,0.1-0.1,0.1-0.1,0.1c0,0,0,0-0.1,0
			c0,0-1.5-0.5-2.7-0.5c-0.2,0-0.5,0-0.7,0.1c-1.1,0.3-1.9,0.8-2.3,1.4c-0.7,1.1,0.8,5.6,0.8,5.6c0,0.1,0.1,0.1,0.2,0.1c0,0,0,0,0,0
			l6-1.4c0,0,0,0,0,0c0.1,0,0.2,0.1,0.2,0.2l0,5.6c0,0.1-0.1,0.2-0.2,0.2l-4.4,1.1c-0.1,0-0.2,0.1-0.1,0.2l2.9,12.3
			c0,0.1,0,0.2-0.1,0.2L55,39.9c0,0,0,0,0,0c-0.1,0-0.2-0.1-0.2-0.2l-2.9-12.3c0-0.1-0.1-0.2-0.2-0.2c0,0,0,0,0,0L48.9,28
			c0,0,0,0,0,0c-0.1,0-0.2-0.1-0.2-0.2l-1.2-5.3c0-0.1,0-0.2,0.2-0.2l2.8-0.7c0.1,0,0.2-0.1,0.1-0.2l-0.7-2.8c0-0.1-0.1-0.3-0.1-0.4
			c0,0-0.5-3.3-0.2-4.4c0.3-1.2,0.6-2.5,1.9-3.5c1.3-1,2.4-1.6,4.6-2.1C56.9,7.9,58,7.8,59,7.8 M59,4.8c-1.4,0-2.6,0.1-3.6,0.4
			c-2.4,0.6-4,1.3-5.8,2.7c-2.1,1.7-2.7,3.9-3,5.1c-0.4,1.5,0,4.2,0.2,5.6c0,0.2,0.1,0.4,0.1,0.6l0,0.1l-0.1,0
			c-1.7,0.4-2.8,2.1-2.4,3.8l1.2,5.3c0.3,1.5,1.6,2.5,3.1,2.5h0.4l0.4-0.1l2.3,9.6c0.3,1.4,1.6,2.5,3.1,2.5h0.4l0.4-0.1l6.4-1.5
			c0.8-0.2,1.5-0.7,2-1.4c0.4-0.7,0.6-1.6,0.4-2.4l-2.3-9.6l1.7-0.4c1.5-0.3,2.5-1.7,2.5-3.2l0-5.6c0-1.6-1.2-2.9-2.7-3.1
			c0.7-0.6,1.2-1.4,1.2-2.4l0.2-4.9c0.1-1.7-1.2-3.1-2.8-3.3C62.2,5,60.7,4.8,59,4.8L59,4.8z M59,15.8C59,15.8,59,15.8,59,15.8
			c0.5,0,1.3,0.2,1.7,0.3l-1.7,0.4C59,16.3,59,16,59,15.8C59,15.8,59,15.8,59,15.8L59,15.8z"/>
	</g>
	<g id="XMLID_1286_">
		<path id="XMLID_64_" class="st2" d="M103.3,77.1c-3.5,0-6.8-1-9.8-2.9c-0.6-0.4-0.8-1.1-0.6-1.8c0.2-0.6,0.8-1,1.4-1
			c0.1,0,0.1,0,0.2,0c0.4,0,0.8,0.1,1.2,0.1c1.2,0,2.4-0.2,3.5-0.6c-1.4-0.9-2.6-2.3-3.1-4c-0.1-0.4-0.1-0.7,0.1-1.1
			c-1.4-1.3-2.2-3.2-2.2-5.2c0,0,0-0.1,0-0.1c0-0.5,0.3-0.9,0.6-1.2c-0.4-0.9-0.6-1.9-0.6-2.9c0-1.3,0.3-2.6,1-3.7
			c0.2-0.4,0.7-0.7,1.2-0.7c0,0,0.1,0,0.1,0c0.4,0,0.9,0.2,1.2,0.6c2.3,2.9,5.6,4.8,9.2,5.4c0.2-3.9,3.4-7,7.3-7
			c1.7,0,3.4,0.6,4.7,1.7c0.9-0.2,1.7-0.6,2.5-1.1c0.2-0.1,0.5-0.2,0.8-0.2c0.3,0,0.7,0.1,0.9,0.3c0.5,0.4,0.7,1,0.5,1.6
			c0,0.1-0.1,0.3-0.2,0.4c0.3,0.1,0.5,0.2,0.7,0.5c0.4,0.5,0.5,1.2,0.1,1.8c-0.7,1.1-1.6,2.1-2.6,2.9c0,0,0,0,0,0
			C121.5,67.9,114.7,77.1,103.3,77.1z"/>
		<g id="XMLID_59_">
			<path id="XMLID_60_" class="st8" d="M114.1,52.4c1.7,0,3.2,0.7,4.3,1.8c1.3-0.3,2.6-0.7,3.7-1.4c-0.4,1.4-1.4,2.5-2.6,3.2
				c1.2-0.1,2.3-0.5,3.4-0.9c-0.8,1.2-1.8,2.2-2.9,3c0,0.3,0,0.5,0,0.8c0,7.7-5.9,16.6-16.6,16.6c-3.3,0-6.4-1-9-2.6
				c0.5,0.1,0.9,0.1,1.4,0.1c2.7,0,5.3-0.9,7.3-2.5c-2.6,0-4.7-1.7-5.5-4.1c0.4,0.1,0.7,0.1,1.1,0.1c0.5,0,1-0.1,1.5-0.2
				c-2.7-0.5-4.7-2.9-4.7-5.7c0,0,0-0.1,0-0.1c0.8,0.4,1.7,0.7,2.6,0.7c-1.6-1-2.6-2.8-2.6-4.9c0-1.1,0.3-2.1,0.8-2.9
				c2.9,3.5,7.2,5.9,12,6.1c-0.1-0.4-0.2-0.9-0.2-1.3C108.3,55,110.9,52.4,114.1,52.4 M122.9,55.2L122.9,55.2 M114.1,49.4
				c-4.1,0-7.6,2.8-8.6,6.7c-2.7-0.8-5.1-2.3-6.8-4.5c-0.6-0.7-1.4-1.1-2.3-1.1c-0.1,0-0.2,0-0.2,0c-1,0.1-1.9,0.6-2.4,1.5
				c-0.8,1.3-1.2,2.9-1.2,4.4c0,0.9,0.1,1.8,0.4,2.6c-0.3,0.4-0.4,0.9-0.4,1.4c0,0.1,0,0.2,0,0.2c0,2.1,0.8,4.1,2.1,5.7
				c0,0.4,0,0.7,0.1,1.1c0.3,1,0.8,1.9,1.4,2.6c-0.1,0-0.2,0-0.3,0c-0.4,0-0.7,0-1-0.1c-0.1,0-0.2,0-0.4,0c-1.3,0-2.4,0.8-2.8,2
				c-0.5,1.3,0,2.8,1.2,3.5c3.2,2,6.8,3.1,10.6,3.1c12,0,19.3-9.5,19.6-19c0.9-0.8,1.7-1.7,2.3-2.7c0.4-0.5,0.6-1.1,0.6-1.8
				c0-0.8-0.3-1.5-0.8-2c0.1-1-0.3-2-1.1-2.6c-0.5-0.4-1.2-0.7-1.9-0.7c-0.5,0-1.1,0.1-1.5,0.4c-0.5,0.3-1,0.5-1.5,0.7
				C117.6,50,115.9,49.4,114.1,49.4L114.1,49.4z"/>
		</g>
	</g>
	<g id="XMLID_1287_">
		<g id="XMLID_1312_">
			<path id="XMLID_79_" class="st4" d="M66.4,79.7c-0.7,0-1.3-0.3-1.8-0.8c-0.5-0.5-0.7-1.1-0.7-1.8c0-1.4,1.2-2.5,2.5-2.5l3.7,0
				c0.1,0,0.3-0.2,0.3-0.4l0-0.9c0-0.2-0.1-0.4-0.3-0.4l-7.9-0.1c-0.1,0-0.3,0.2-0.3,0.4c0,1.4-1.2,2.5-2.5,2.5
				c-1.4,0-2.6-1.2-2.5-2.6c0-3,2.5-5.4,5.4-5.4l8,0.1c1.4,0,2.8,0.6,3.8,1.7c1,1.1,1.5,2.4,1.5,3.9l0,0.9c0,3-2.5,5.4-5.4,5.4
				L66.4,79.7z"/>
			<g id="XMLID_44_">
				<path id="XMLID_45_" d="M62.2,69.2C62.2,69.2,62.2,69.2,62.2,69.2l8,0.1c2.1,0,3.9,1.9,3.8,4.1l0,0.9c0,2.2-1.8,4-3.9,4
					c0,0,0,0-0.1,0l-3.7,0c-0.6,0-1-0.5-1-1.1c0-0.6,0.5-1,1-1c0,0,0,0,0,0l3.7,0c0,0,0,0,0,0c1,0,1.8-0.8,1.8-1.9l0-0.9
					c0-1.1-0.8-1.9-1.8-1.9l-7.9-0.1c0,0,0,0,0,0c-1,0-1.8,0.8-1.8,1.9c0,0.6-0.5,1-1,1c0,0,0,0,0,0c-0.6,0-1-0.5-1-1.1
					C58.4,70.9,60.1,69.2,62.2,69.2 M62.2,66.2L62.2,66.2c-3.7,0-6.8,3.1-6.9,6.9c0,2.2,1.8,4.1,4,4.1l0,0l0,0
					c1.4,0,2.7-0.8,3.4-1.9c-0.3,0.5-0.4,1.1-0.4,1.8c0,1.1,0.4,2.1,1.1,2.9c0.8,0.8,1.8,1.2,2.8,1.2l3.7,0l0.1,0
					c3.7,0,6.8-3.1,6.9-6.9l0-0.9c0.1-3.9-3-7.1-6.8-7.1L62.2,66.2L62.2,66.2L62.2,66.2z M63,75c0.1-0.2,0.2-0.5,0.3-0.7l0.3,0
					C63.3,74.5,63.1,74.7,63,75L63,75z"/>
			</g>
		</g>
		<g id="XMLID_1288_">
			<path id="XMLID_35_" class="st4" d="M52.4,79.5c-3,0-5.3-2.5-5.3-5.6l0-0.9c0-3,2.5-5.4,5.4-5.4l3.8,0c1.4,0,2.5,1.2,2.5,2.6
				c0,1.4-1.2,2.5-2.5,2.5l-3.7,0c-0.1,0-0.3,0.2-0.3,0.4l0,0.9c0,0.2,0.1,0.4,0.3,0.4l7.9,0.1c0.1,0,0.3-0.2,0.3-0.4
				c0-1.4,1.2-2.5,2.5-2.5c1.4,0,2.6,1.2,2.5,2.6c0,3-2.5,5.4-5.4,5.4L52.4,79.5z"/>
			<path id="XMLID_31_" d="M52.5,69C52.5,69,52.5,69,52.5,69l3.7,0c0.6,0,1,0.5,1,1.1c0,0.6-0.5,1-1,1c0,0,0,0,0,0l-3.7,0
				c0,0,0,0,0,0c-1,0-1.8,0.8-1.8,1.9l0,0.9c0,1.1,0.8,1.9,1.8,1.9l7.9,0.1c0,0,0,0,0,0c1,0,1.8-0.8,1.8-1.9c0-0.6,0.5-1,1-1
				c0,0,0,0,0,0c0.6,0,1,0.5,1,1.1c0,2.2-1.8,4-3.9,4c0,0,0,0-0.1,0L52.4,78c-2.1,0-3.9-1.9-3.8-4.1l0-0.9
				C48.6,70.8,50.4,69,52.5,69 M52.5,66c-3.7,0-6.8,3.1-6.9,6.9l0,0.9c-0.1,3.9,3,7.1,6.8,7.1l7.9,0.1l0.1,0c3.7,0,6.8-3.1,6.9-6.9
				c0-1.1-0.4-2.1-1.1-2.9c-0.8-0.8-1.8-1.2-2.8-1.2l0,0l0,0c-1.4,0-2.7,0.8-3.4,1.9c0.3-0.5,0.4-1.1,0.4-1.8c0-2.2-1.8-4.1-4-4.1
				L52.5,66L52.5,66L52.5,66z M59.1,73c0.2-0.2,0.4-0.4,0.6-0.7c-0.1,0.2-0.2,0.5-0.3,0.7L59.1,73L59.1,73z"/>
		</g>
	</g>
	<line id="XMLID_112_" class="st9" x1="35.4" y1="41.6" x2="43.8" y2="50.6"/>
	<line id="XMLID_1_" class="st9" x1="85.2" y1="46.2" x2="77.3" y2="55.9"/>
	<line id="XMLID_381_" class="st9" x1="75.6" y1="33.3" x2="77.5" y2="38.5"/>
	<line id="XMLID_225_" class="st9" x1="9.6" y1="91.9" x2="1.5" y2="89.9"/>
</g>
</svg>
